<?xml version="1.0" encoding="UTF-8"?><svg enable-background="new 0 0 336 235.2" version="1.1" viewBox="0 0 169 188" xmlns="http://www.w3.org/2000/svg" xmlns:xlink="http://www.w3.org/1999/xlink"><rect width="169" height="188" fill-opacity="0" pointer-events="none"/><title>mdpi/icons</title><defs><g id="coin"><path d="m76 22.7a38 18 0 0 1 -38 18 38 18 0 0 1 -38 -18 38 18 0 0 1 38 -18 38 18 0 0 1 38 18z" fill="#A98F0F"/><path d="m76 22a38 18 0 0 1 -38 18 38 18 0 0 1 -38 -18 38 18 0 0 1 38 -18 38 18 0 0 1 38 18z" fill="#E8C61C"/><path d="m0 17h76v5h-76v-5z" fill="#E8C61C"/><path d="m76 18a38 18 0 0 1 -38 18 38 18 0 0 1 -38 -18 38 18 0 0 1 38 -18 38 18 0 0 1 38 18z" fill="#FBD723"/></g><g id="bitcoin-symbol" transform="translate(20 3)" fill="#A98F0F" opacity=".52"><path d="m0 23.97l17.01-21.03 10.16 0.47c3.77 0.18 6.34 0.82 7.70 1.91 1.36 1.09 1.47 2.56 0.33 4.38-1.35 2.18-4.10 3.68-8.22 4.50 1.14 0.36 1.85 0.97 2.14 1.82 0.28 0.85 0.08 1.83-0.59 2.93-1.27 2.02-3.31 3.54-6.11 4.55-2.79 1.00-6.09 1.39-9.90 1.16l-12.51-0.73zm13.99-8.79l-4.60 5.69 5.16 0.30c1.61 0.09 3.10-0.09 4.47-0.56 1.36-0.46 2.39-1.14 3.07-2.02 0.67-0.87 0.85-1.57 0.54-2.10-0.31-0.52-1.13-0.84-2.47-0.96l-6.17-0.34zm2.45-3.07l4.44 0.25c1.66 0.06 3.15-0.12 4.47-0.56 1.31-0.44 2.30-1.09 2.97-1.96 1.28-1.71 0.36-2.65-2.76-2.81l-4.82-0.24-4.29 5.33z"/><path d="m22 0.85l3 0.13-3 3.86-3-0.13z"/><path d="m29 1.16l3 0.13-3 3.86-3-0.13z"/><path d="m6 22.13l3 0.13-3 3.86-3-0.13z"/><path d="m13 22.44l3 0.13-3 3.86-3-0.13z"/></g></defs><g transform="matrix(1.35 0 0 1.35 .97 1.11)"><g transform="translate(46 8)"><use xlink:href="#coin" transform="translate(0 35)"/><use xlink:href="#coin" transform="translate(0 25)"/><use xlink:href="#coin" transform="translate(0 20)"/><use xlink:href="#coin" transform="translate(0 10)"/><use xlink:href="#coin" transform="translate(0 5)"/><use xlink:href="#coin"/><use xlink:href="#bitcoin-symbol"/><path d="m0 18c0-9.94 17.01-18 38-18s38 8.05 38 18v41h-0.05c-1.09 9.47-17.66 17-37.94 17s-36.84-7.52-37.94-17h-0.05v-41z" opacity=".20"/></g><use xlink:href="#coin" transform="translate(0 95)"/><use xlink:href="#coin" transform="translate(0 90)"/><use xlink:href="#coin" transform="translate(0 80)"/><use xlink:href="#coin" transform="translate(0 75)"/><use xlink:href="#coin" transform="translate(0 65)"/><use xlink:href="#coin" transform="translate(0 60)"/><use xlink:href="#coin" transform="translate(0 55)"/><use xlink:href="#coin" transform="translate(0 50)"/><use xlink:href="#coin" transform="translate(0 45)"/><use xlink:href="#coin" transform="translate(0 40)"/><use xlink:href="#coin" transform="translate(0 35)"/><use xlink:href="#coin" transform="translate(0 25)"/><use xlink:href="#coin" transform="translate(0 20)"/><use xlink:href="#coin" transform="translate(0 10)"/><use xlink:href="#coin" transform="translate(0 5)"/><use xlink:href="#coin"/><use xlink:href="#bitcoin-symbol"/><g fill-opacity=".15"><path d="m0 119l76-51v25.5z"/><path d="m0 17l71-7.5-71 39.5z"/><path d="m0 64l76 54-76-9z"/><path d="m76 68l-76-19 76-29.5z"/><path d="m0 17l76 61-76 6.5z"/><path d="m76 83l46-21.5-46-18z"/><path d="m76 68l46-41.5-46-7z"/><path d="m122 67l-46-23.5 46-17z"/></g></g></svg>