<?xml version="1.0" encoding="utf-8"?>
<svg id="master-artboard" viewBox="0 0 109 154" version="1.1" xmlns="http://www.w3.org/2000/svg" x="0px" y="0px" style="enable-background:new 0 0 336 235.2;" width="109px" height="154px"><rect id="ee-background" x="0" y="0" width="109" height="154" style="fill: white; fill-opacity: 0; pointer-events: none;"/>














<title>mdpi/icons</title><g id="Group-12" transform="matrix(1.3565890789031982, 0, 0, 1.3565890789031982, 1.775359869003296, 1.98227858543396)" fill-rule="nonzero">
            <path d="M38.4764282,78.2304217 L20.0697806,110.11167 L7.10542736e-15,98.5243773 L25.0965744,55.0558352 L7.10542736e-15,11.5872932 L20.0697806,1.42108547e-14 L38.4764282,31.8812488 L56.8830757,2.84217094e-14 L76.9528563,11.5872932 L51.8562819,55.0558352 L76.9528563,98.5243773 L56.8830757,110.11167 L38.4764282,78.2304217 Z" id="Combined-Shape" fill="#D42E2E"/>
            <path d="M 0 11.579999923706055 L 38.47999954223633 31.8799991607666 L 20 0 Z" id="Path-44" fill-opacity="0.15" fill="#000000"/>
            <path d="M 0 98.5 L 38.47999954223633 31.8799991607666 L 38.5 78.19999694824219 Z" id="Path-45" fill-opacity="0.15" fill="#000000"/>
            <path d="M 25.100000381469727 55.04999923706055 L 51.880001068115234 55 L 76.94999694824219 11.59000015258789 Z" id="Path-46" fill-opacity="0.15" fill="#000000"/>
            <path d="M 57 110 L 76.94999694824219 98.52999877929688 L 38.5 78.5 Z" id="Path-47" fill-opacity="0.15" fill="#000000"/>
            <path d="M 76.94999694824219 98.5199966430664 L 25 55 L 38.5 32 Z" id="Path-48" fill-opacity="0.15" fill="#000000"/>
        </g></svg>